<?xml version="1.0" encoding="UTF-8" standalone="no"?>
<svg viewBox="0 0 240 75" xml:space="preserve" xmlns:xlink="http://www.w3.org/1999/xlink" xmlns="http://www.w3.org/2000/svg">
   <style>
      .bg { fill: #FFF; }
      @media (prefers-color-scheme: dark) { 
         .pref *{ fill: #fff; } 
         .bg { fill: #000; }
      }
   </style>
   <rect class="bg" width="100%" height="100%" x="0" y="0" rx="3" ry="3" />
   <g class="pref">
      <path d="m 202.245,41.81 v 5.96 c 0,8.377 -6.654,13.894 -15.846,13.894 -8.693,0 -15.846,-5.019 -15.846,-13.894 v -5.96 c 0,-8.875 7.153,-13.894 15.846,-13.894 9.192,0 15.846,5.517 15.846,13.894 z m -15.846,-5.478 c -3.438,0 -6.889,1.515 -6.889,6.051 v 4.814 c 0,4.537 3.451,6.051 6.889,6.051 4.392,0 6.889,-2.265 6.889,-6.051 v -4.814 c 0,-3.786 -2.497,-6.051 -6.889,-6.051 z"
      id="path8"
      /><path d="M 165.582,21.914 C 163,16.437 158.284,12.301 152.229,12.301 h -0.143 -5.681 c -6.34,0 -11.479,5.139 -11.479,11.479 v 13.088 0.218 13.088 c 0,6.34 5.139,11.479 11.479,11.479 h 5.681 0.143 c 6.055,0 11.326,-3.907 13.353,-9.613 1.274,-3.586 2.769,-8.633 2.769,-14.954 0,-6.321 -1.123,-11.681 -2.769,-15.172 z m -9.372,28.239 c -0.787,1.775 -2.42,3.023 -4.362,3.023 h -4.633 l -0.013,-0.062 c -1.418,0 -2.568,-1.15 -2.568,-2.568 V 37.087 36.869 23.41 c 0,-1.418 1.15,-2.568 2.568,-2.568 l 0.013,-0.062 h 4.633 c 1.942,0 3.505,1.28 4.362,3.023 1.491,3.034 2.534,8.4 2.534,13.175 0,4.775 -1.164,10.085 -2.534,13.175 z"
      id="path6-3"
      /><path d="m 122.785,47.802 c 0,3.038 -2.462,5.5 -5.5,5.5 v 0 c -3.038,0 -5.5,-2.462 -5.5,-5.5 V 32.385 c 0,-2.468 -2.001,-4.469 -4.469,-4.469 -2.468,0 -4.469,2.001 -4.469,4.469 v 16.28 c 0,7.18 6.464,13 14.438,13 h 0.002 c 7.974,0 14.438,-5.82 14.438,-13 V 32.386 c 0,-2.469 -2.001,-4.47 -4.47,-4.47 -2.469,0 -4.47,2.001 -4.47,4.47 z"
      id="path7"
      /><path d="m 90.178,12.177 c 2.484,0 4.498,2.014 4.498,4.498 v 35.063 c 0,0.903 0.641,1.732 1.538,1.834 0.33,0.038 0.646,-0.013 0.924,-0.137 0.465,-0.19 0.975,-0.293 1.508,-0.293 2.214,0 4,1.791 4,4.016 0,2.225 -1.901,4.011 -4,4.011 h -3.965 c -4.971,0 -9,-4.029 -9,-9 V 16.674 c -10e-4,-2.483 2.013,-4.497 4.497,-4.497 z"
      id="path1-5"
      /><path d="m 78.669,53.109 c -1.321,0.296 -4.121,0.541 -6.332,0.541 -5.682,0 -7.259,-2.648 -7.259,-5.878 v -5.964 c 0,-3.212 1.578,-5.878 7.259,-5.878 2.21,0 5.011,0.245 6.332,0.541 2.001,0.448 4.013,-0.689 4.628,-2.645 0.688,-2.192 -0.643,-4.496 -2.884,-5.004 -2.063,-0.468 -5.532,-0.889 -9.398,-0.889 -9.284,0 -14.817,5.801 -14.817,13.283 v 7.15 c 0,7.482 5.533,13.283 14.817,13.283 3.866,0 7.335,-0.422 9.398,-0.889 2.24,-0.508 3.572,-2.813 2.884,-5.004 -0.615,-1.957 -2.627,-3.095 -4.628,-2.647 z"
      id="c"
      /><path d="m 53.996,41.468 c 0,-8.456 -6.645,-13.561 -15.923,-13.561 -0.035,0 -1.902,0 -4.423,0.001 -6.347,10e-4 -11.339,4.683 -11.339,11.03 L 22.293,57.21 c 0,2.473 2.035,4.478 4.509,4.478 2.473,0 4.461,-2.005 4.461,-4.478 V 38.565 c 0,-1.45 1.176,-2.626 2.626,-2.626 h 4.213 c 4.433,0 6.954,2.286 6.954,6.108 L 45.06,57.21 c 0,2.473 2.005,4.478 4.478,4.478 v 0 c 2.473,0 4.46,-2.005 4.46,-4.478 V 41.468 Z"
      id="path4-2"
      /><path d="m 20.09,17.12 c 0,-2.729 -2.253,-4.932 -5.001,-4.849 -2.655,0.08 -4.702,2.396 -4.702,5.053 v 39.513 c 0,2.679 2.172,4.852 4.852,4.852 v 0 c 2.679,0 4.852,-2.172 4.852,-4.852 V 17.12 Z"
      id="path5-9"
      />
      <use xlink:href="#c" transform="translate(148.248)"/>
   </g>
</svg>
